<?xml version="1.0" standalone="no"?>
<!DOCTYPE svg PUBLIC "-//W3C//DTD SVG 20010904//EN"
 "http://www.w3.org/TR/2001/REC-SVG-20010904/DTD/svg10.dtd">
<svg version="1.0" xmlns="http://www.w3.org/2000/svg"
 width="1092.000000pt" height="1013.000000pt" viewBox="0 0 1092.000000 1013.000000"
 preserveAspectRatio="xMidYMid meet">
<metadata>
Created by potrace 1.16, written by Peter Selinger 2001-2019
</metadata>
<g transform="translate(0.000000,1013.000000) scale(0.100000,-0.100000)"
fill="#000000" stroke="none">
<path d="M2495 8144 c-99 -8 -212 -26 -307 -49 -97 -24 -267 -87 -277 -103 -3
-5 -35 -25 -70 -47 -35 -21 -89 -63 -121 -94 -295 -291 -89 -662 445 -801 66
-18 134 -36 150 -41 57 -17 280 -31 390 -24 313 19 577 103 755 240 71 54 118
111 157 185 25 50 28 65 28 155 0 90 -3 106 -29 156 -98 195 -371 349 -711
402 -104 17 -323 27 -410 21z"/>
<path d="M8156 4504 c-530 -72 -937 -317 -1063 -640 -23 -60 -27 -84 -27 -186
-1 -64 1 -118 4 -121 3 -3 318 -167 702 -366 l696 -361 66 0 c141 0 364 33
516 76 436 125 729 365 796 651 31 132 3 290 -73 416 -165 272 -570 478 -1053
537 -116 14 -444 11 -564 -6z"/>
<path d="M1090 2700 c-347 -49 -620 -166 -777 -333 -71 -77 -105 -133 -128
-212 -24 -81 -16 -200 17 -275 100 -221 384 -398 752 -469 630 -122 1318 81
1495 441 174 352 -134 698 -733 824 -103 22 -153 26 -341 29 -121 2 -249 0
-285 -5z"/>
</g>
</svg>
